<!-- pattern-1.svg -->
<svg xmlns="http://www.w3.org/2000/svg" width="280" height="280" viewBox="0 0 280 280">
    <rect width="100%" height="100%" fill="#fcfaf8"/>
    <!-- Тени/мягкие точки -->
    <g opacity="0.15" fill="#bda68c">
        <circle cx="40" cy="220" r="2"/><circle cx="85" cy="60" r="2"/><circle cx="180" cy="140" r="2"/>
        <circle cx="230" cy="200" r="2"/><circle cx="120" cy="110" r="2"/><circle cx="240" cy="40" r="2"/>
    </g>
    <!-- Томаты -->
    <g>
        <g transform="translate(58,56) rotate(-10)">
            <circle r="16" fill="#e85d5d"/>
            <path d="M-4,-14 0,-6 6,-14 4,-4 14,-3 5,2 10,10 0,6 -10,10 -6,2 -14,-3 -4,-4 Z" fill="#5a9b52"/>
        </g>
        <g transform="translate(210,70) rotate(12)">
            <circle r="14" fill="#e85d5d"/>
            <path d="M-3,-12 0,-5 5,-12 4,-3 12,-2 4,2 8,8 0,5 -8,8 -5,2 -12,-2 -3,-3 Z" fill="#5a9b52"/>
        </g>
        <g transform="translate(120,205) rotate(-6)">
            <circle r="13" fill="#e85d5d"/>
            <path d="M-3,-10 0,-4 5,-10 4,-2 10,-2 4,1 7,7 0,4 -7,7 -4,1 -10,-2 -3,-2 Z" fill="#5a9b52"/>
        </g>
    </g>
    <!-- Сыр -->
    <g fill="#f2c94c" stroke="#e0b847" stroke-width="1.5">
        <g transform="translate(85,150) rotate(8)">
            <polygon points="-20,18 24,0 -10,-20"/>
            <circle cx="-5" cy="-3" r="3" fill="#e0b847"/><circle cx="3" cy="6" r="2.8" fill="#e0b847"/><circle cx="10" cy="-5" r="2.2" fill="#e0b847"/>
        </g>
        <g transform="translate(235,170) rotate(-18)">
            <polygon points="-18,16 22,0 -9,-18"/>
            <circle cx="-4" cy="-3" r="3" fill="#e0b847"/><circle cx="2" cy="5" r="2.6" fill="#e0b847"/>
        </g>
    </g>
    <!-- Розмарин -->
    <g fill="none" stroke="#7aa86e" stroke-width="3" stroke-linecap="round">
        <g transform="translate(40,210) rotate(-12)">
            <path d="M0,0 C10,-20 10,-40 0,-60"/>
            <path d="M2,-8 l10,-8"/><path d="M1,-18 l12,-9"/><path d="M0,-30 l12,-10"/><path d="M-1,-42 l10,-9"/>
        </g>
        <g transform="translate(170,120) rotate(22)">
            <path d="M0,0 C10,-18 10,-36 0,-54"/>
            <path d="M2,-10 l10,-8"/><path d="M1,-20 l12,-9"/><path d="M0,-32 l12,-10"/>
        </g>
    </g>
    <!-- Утварь: ложка и венчик -->
    <g fill="#cdbca8">
        <g transform="translate(48,245) rotate(-18)">
            <rect x="-42" y="-6" rx="3" ry="3" width="84" height="12"/>
            <circle cx="42" cy="0" r="14" fill="#d9cbbb"/>
        </g>
        <g transform="translate(150,40) rotate(18)">
            <rect x="-6" y="10" width="12" height="42" rx="4" ry="4"/>
            <g fill="none" stroke="#cdbca8" stroke-width="2">
                <ellipse cx="0" cy="0" rx="18" ry="10"/>
                <ellipse cx="0" cy="0" rx="12" ry="6"/>
                <ellipse cx="0" cy="0" rx="6" ry="3"/>
            </g>
        </g>
    </g>
</svg>
